<?xml version="1.0" encoding="utf-8"?>
<!-- Generator: Adobe Illustrator 19.2.1, SVG Export Plug-In . SVG Version: 6.00 Build 0)  -->
<svg version="1.1" id="Layer_1" xmlns="http://www.w3.org/2000/svg" xmlns:xlink="http://www.w3.org/1999/xlink" x="0px" y="0px"
	 viewBox="0 0 850 500" style="enable-background:new 0 0 850 500;" xml:space="preserve">
<style type="text/css">
	.st0{display:none;}
	.st1{fill:#E55EA2;}
</style>
<g id="Layer_2">
	<g>
		<path class="st1" d="M211.6,69.4c-1.9-1.5-5.1-2.4-9.6-2.4h-8v20h8c4.4,0,7.6-0.7,9.6-2.3c0.9-0.7,1.6-1.7,2.1-2.9
			c0.5-1.2,0.8-2.8,0.8-4.8C214.4,73.5,213.5,70.9,211.6,69.4z"/>
		<path class="st1" d="M485,0H0v500h151L847.6,0H485z M252.8,59.4c4.8-3.8,11.3-5.7,19.6-5.7c2,0,3.9,0.1,5.9,0.3
			c1.9,0.2,3.8,0.5,5.5,0.8c1.7,0.4,3.6,0.8,5.5,1.4c1.9,0.6,3.8,1.2,5.8,2v14.1c-3-2.2-7-3.8-10.6-5c-3.6-1.1-7.2-1.7-10.7-1.7
			c-3.9,0-6.9,0.7-9,2.1s-3.1,3.4-3.1,6c0,2.1,0.8,3.7,2.3,5c0.7,0.7,1.8,1.3,3.3,2c1.4,0.7,3.5,1.5,6.2,2.4l7,2.3
			c6.6,2.2,11.5,5,14.6,8.5s4.7,8.1,4.7,13.7c0,7.2-2.5,12.6-7.4,16.2s-12.2,5.5-21.6,5.5c-2.2,0-4.3-0.1-6.4-0.3s-4.2-0.5-6.3-1
			c-4.2-0.9-7.9-2.2-11.9-3.9v-14.9c2,1.4,4.4,2.6,6.4,3.6s4.1,1.8,6.2,2.5c4.1,1.3,8,2,11.9,2c2.1,0,3.9-0.2,5.4-0.6s2.9-1,4-1.8
			c2.2-1.6,3.3-3.8,3.3-6.7c0-2.2-0.7-4.1-2.2-5.8c-0.8-0.8-1.7-1.6-2.8-2.2c-1.1-0.6-2.3-1.2-3.6-1.6l-8-2.7
			c-4.2-1.4-7.7-2.9-10.4-4.3c-2.7-1.4-4.8-2.9-6.2-4.4c-2.9-3-4.3-7.1-4.3-12.3C245.7,68.4,248.1,63.2,252.8,59.4z M113,115h16V68
			h-16V55h48v13h-16v47h16v13h-48V115z M45,55h52v13H62v16h31v13H62v31H45V55z M98,188H77v60H61v-60H40v-13h58V188z M163,248h-16
			v-32h-20v32h-16v-73h16v28h20v-28h16V248z M229,188h-16v47h16v13h-49v-13h17v-47h-17v-13h49V188z M220.8,128l-9.9-18.4l-1.2-2.1
			c-1.5-2.8-3.1-5-4.7-6.3c-1.6-1.4-3.4-2.1-5.5-2.1H194v29h-16V55h23.6c10.5,0,18.1,1.7,22.7,5c2.3,1.7,4,3.9,5.2,6.6
			c1.1,2.7,1.7,5.9,1.7,9.4c0,2.7-0.3,5.1-1,7c-0.7,2-1.7,3.7-3.1,5.2c-1.3,1.4-2.9,2.6-4.9,3.5c-1.9,0.9-4.3,1.5-7,1.8
			c0.8,0.2,1.6,0.4,2.4,0.8c0.7,0.4,1.4,0.8,1.9,1.2c0.5,0.5,1.2,1.2,1.9,2.2s1.5,2.3,2.4,4l14.8,26.2h-17.8V128z M300,248h-17.6
			L259,195v53h-14v-73h17.5l22.5,53.1V175h15V248z M368,242.2c-3,2.3-6.3,4.1-10.1,5.4c-1.9,0.6-3.7,1.1-5.7,1.4
			c-2,0.3-4.1,0.5-6.4,0.5c-5.2,0-9.9-0.8-14-2.5c-4.1-1.6-7.6-4.1-10.4-7.3c-2.7-3.1-4.9-7-6.4-11.6s-2.3-10.1-2.3-16.5
			c0-6.1,0.7-11.4,2.2-16.1c1.4-4.7,3.7-8.7,6.6-11.9c5.9-6.5,14.2-9.7,25-9.7c1.9,0,3.6,0.1,5.2,0.3s3,0.5,4.6,0.9
			c3.1,0.8,6.7,2,8.7,3.6v16c-2-2.6-4.6-4.6-7.6-5.9c-2.9-1.3-6-2-9.5-2c-6.2,0-10.8,2.1-13.8,6.2c-3,4.2-4.5,10.4-4.5,18.7
			c0,4.1,0.4,7.7,1.1,10.8s1.8,5.7,3.3,7.9c1.4,2,3.1,3.6,5.2,4.7c2.1,1.1,4.6,1.6,7.6,1.6c0.7,0,1.5,0,2.3-0.1s1.5-0.2,2.1-0.3
			c0.8-0.2,1.3-0.3,1.7-0.5c0.4-0.2,1.1-0.4,1.1-0.7V221h-11v-12h25L368,242.2L368,242.2z M369,68h-21v60h-16V68h-21V55h58V68z
			 M427.6,243.9c-4.9,3.6-12.2,5.5-21.6,5.5c-2.2,0-4.3-0.1-6.4-0.3s-4.4-0.5-6.5-1c-4.2-0.9-8.1-2.2-12.1-3.9v-14.9
			c3,1.4,4.6,2.6,6.7,3.6c2,1,4.2,1.8,6.3,2.5c4.1,1.3,8.1,2,11.9,2c2.1,0,3.9-0.2,5.5-0.6c1.5-0.4,2.9-1,4-1.8
			c2.2-1.6,3.3-3.8,3.3-6.7c0-2.2-0.7-4.1-2.2-5.8c-0.8-0.8-1.7-1.6-2.8-2.2c-1.1-0.6-2.3-1.2-3.6-1.6l-8-2.7
			c-4.2-1.4-7.7-2.9-10.4-4.3c-2.7-1.4-4.8-2.9-6.2-4.4c-2.9-3-4.3-7.1-4.3-12.3c0-6.6,2.4-11.8,7.1-15.6c4.8-3.8,11.3-5.7,19.6-5.7
			c2,0,3.9,0.1,5.9,0.3c1.9,0.2,3.8,0.5,5.5,0.8c1.7,0.4,3.3,0.8,5.3,1.4c1.9,0.6,3.5,1.2,5.5,2v14.1c-3-2.2-6.8-3.8-10.4-5
			c-3.6-1.1-7.1-1.7-10.6-1.7c-3.9,0-6.9,0.7-8.9,2.1c-2.1,1.4-3.1,3.4-3.1,6c0,2.1,0.8,3.7,2.3,5c0.7,0.7,1.8,1.3,3.3,2
			c1.4,0.7,3.5,1.5,6.2,2.4l7,2.3c6.6,2.2,11.5,5,14.6,8.5s4.7,8.1,4.7,13.7C435,234.9,432.5,240.3,427.6,243.9z"/>
	</g>
</g>
</svg>
